<svg xmlns="http://www.w3.org/2000/svg" viewBox="0 0 20 20" width="20" height="20">
	<defs>
		<clipPath clipPathUnits="userSpaceOnUse" id="cp1">
			<path d="M-104 -409L271 -409L271 258L-104 258Z" />
		</clipPath>
	</defs>
	<style>
		tspan { white-space:pre }
		.shp0 { fill: #000000 } 
	</style>
	<g id="rowery" clip-path="url(#cp1)">
		<g id="2">
			<g id="Group 3">
				<path id="Shape" fill-rule="evenodd" class="shp0" d="M13.62 0.17C14.2 0.28 14.78 0.49 15.25 0.92C15.72 1.35 16 2 16 2.7C16 3.29 15.73 3.84 15.41 4.2C15.09 4.55 14.74 4.78 14.41 4.95C14.23 5.04 14.22 5.01 14.06 5.07L14.94 9.01C14.96 9.01 14.98 9.01 15 9.01C17.8 9.01 20 11.21 20 14.01C20 16.81 17.8 19.01 15 19.01C12.2 19.01 10 16.81 10 14.01C10 11.94 11.2 10.18 12.97 9.42L12.56 7.57C9.5 7.94 7.22 10.39 6.22 11.7C7.28 12.42 8 13.64 8 15.01C8 17.21 6.2 19.01 4 19.01C1.8 19.01 0 17.21 0 15.01C0 12.81 1.8 11.01 4 11.01C4.09 11.01 4.17 11.04 4.25 11.04C4.41 10.78 4.59 10.53 5 10.01L3.41 8.14C3.27 8.16 3.11 8.2 3 8.2C2 8.2 1 7.81 1 6.01L7 6.01C7 6.91 6.8 7.12 6 7.42C5.9 7.45 5.68 7.53 5.53 7.57L6.37 8.51C7.76 7.21 9.71 5.89 12.16 5.57L11.94 4.64L11.72 3.64L12.72 3.42C12.72 3.42 13.12 3.35 13.5 3.17C13.69 3.07 13.86 2.94 13.94 2.85C14.01 2.77 14 2.75 14 2.7C14 2.44 13.98 2.45 13.91 2.39C13.83 2.32 13.62 2.21 13.25 2.14C12.51 1.99 11.28 2.01 10 2.01L10 0.01C11.22 0.01 12.49 -0.06 13.62 0.17ZM15.97 13.79L15.94 13.79C15.96 13.87 16 13.93 16 14.01C16 14.56 15.55 15.01 15 15.01C14.53 15.01 14.17 14.67 14.06 14.23L14.03 14.23L14 14.01L13.44 11.45C12.57 11.96 12 12.9 12 14.01C12 15.71 13.3 17.01 15 17.01C16.7 17.01 18 15.71 18 14.01C18 12.44 16.89 11.22 15.37 11.04L15.97 13.79ZM2 15.01C2 16.11 2.9 17.01 4 17.01C5.1 17.01 6 16.11 6 15.01C6 14.13 5.42 13.37 4.62 13.1C4.59 13.1 4.56 13.08 4.53 13.07C4.5 13.06 4.46 13.08 4.44 13.07C4.43 13.06 4.42 13.05 4.41 13.04C4.28 13.01 4.14 13.01 4 13.01C2.9 13.01 2 13.91 2 15.01Z" />
			</g>
		</g>
	</g>
</svg>