<svg xmlns="http://www.w3.org/2000/svg" viewBox="0 0 15 21" width="15" height="21">
	<defs>
		<clipPath clipPathUnits="userSpaceOnUse" id="cp1">
			<path d="M-259 -554L116 -554L116 113L-259 113Z" />
		</clipPath>
	</defs>
	<style>
		tspan { white-space:pre }
		.shp0 { fill: #000000 } 
	</style>
	<g id="rowery-1" clip-path="url(#cp1)">
		<g id="dane">
			<g id="Group 3">
				<g id="icons8-unlock_2">
					<path id="Shape" fill-rule="evenodd" class="shp0" d="M13.12 5.62L13.12 8.17C14.29 9.5 15 11.22 15 13.12C15 17.27 11.64 20.62 7.5 20.62C3.36 20.62 0 17.27 0 13.12C0 8.98 3.36 5.62 7.5 5.62C8.87 5.62 10.14 6.01 11.25 6.65L11.25 5.62C11.25 3.54 9.58 1.87 7.5 1.87C5.68 1.87 4.19 3.16 3.84 4.86L1.99 4.48C2.52 1.92 4.79 0 7.5 0C10.59 0 13.12 2.53 13.12 5.62ZM1.87 13.12C1.87 16.23 4.4 18.75 7.5 18.75C10.6 18.75 13.12 16.23 13.12 13.12C13.12 10.02 10.6 7.5 7.5 7.5C4.4 7.5 1.87 10.02 1.87 13.12ZM9.37 13.12C9.37 14.16 8.54 15 7.5 15C6.46 15 5.62 14.16 5.62 13.12C5.62 12.09 6.46 11.25 7.5 11.25C8.54 11.25 9.37 12.09 9.37 13.12Z" />
				</g>
			</g>
		</g>
	</g>
</svg>